# xmcd CD database file
# Copyright (C) 1993-1998 Ti Kan
#
# Track frame offsets:
#	150
#	13767
#	31112
#	44855
#	62997
#	79600
#	102522
#	117350
#	133107
#	146650
#	157735
#	169792
#	185440
#	201560
#	218025
#	236335
#	250970
#	266637
#	281172
#	299390
#
# Disc length: 4197 seconds
#
# Revision: 1
# Processed by: cddbd v1.4b41PL1 Copyright (c) Steve Scherf et al.
# Submitted via: NotifyCDPlayer(CDDB) 1.51.3
#
DISCID=34106314
DTITLE=Various Artist - ALL STAR COUNTRY Disc 2
DYEAR=1900
DGENRE=
TTITLE0=HEART'S AREN'T MADE TO BREAK
TTITLE1=UNTIL I MET YOU
TTITLE2=AT THE SOUND OF THE TONE
TTITLE3=GIVE ME BACK BACK THAT OLD FAMILIAR FEELING
TTITLE4=YOU CAN'T RUN FROM LOVE
TTITLE5=YOU STILL MOVE ME
TTITLE6=I DON'T WANNA LOSE YOUR LOVE
TTITLE7=SLOW BOAT TO CHINA
TTITLE8=BABY'S GOT HER BLUE JEANS ON
TTITLE9=DESPERADO LOVE
TTITLE10=I CAN TELL BY THE WAY YOU DANCE
TTITLE11=MAKIN' UP FOR LOST TIME
TTITLE12=A LADY LIKE YOU
TTITLE13=LOVE AT THE FIVE AND DIME
TTITLE14=YOU CAN DREAM OF ME
TTITLE15=TO ME
TTITLE16=BABY'S GOT A NEW BABY
TTITLE17=JUST ANOTHER LOVE
TTITLE18=DON'T GO TO STRANGERS
TTITLE19=A LONG LINE OF LOVE
EXTD=
EXTT0=
EXTT1=
EXTT2=
EXTT3=
EXTT4=
EXTT5=
EXTT6=
EXTT7=
EXTT8=
EXTT9=
EXTT10=
EXTT11=
EXTT12=
EXTT13=
EXTT14=
EXTT15=
EXTT16=
EXTT17=
EXTT18=
EXTT19=
PLAYORDER=
